HIERARCHY
ROOT hip
{
  OFFSET 0 0 0
  CHANNELS 6 Xposition Yposition Zposition Zrotation Yrotation Xrotation
  JOINT abdomen
  {
    OFFSET 0 20.6881 -0.73152
    CHANNELS 3 Zrotation Xrotation Yrotation
    JOINT chest
    {
      OFFSET 0 11.7043 -0.48768
      CHANNELS 3 Zrotation Xrotation Yrotation
      JOINT neck
      {
        OFFSET 0 22.1894 -2.19456
        CHANNELS 3 Zrotation Xrotation Yrotation
        JOINT head
        {
          OFFSET -0.24384 7.07133 1.2192
          CHANNELS 3 Zrotation Xrotation Yrotation
          JOINT leftEye
          {
            OFFSET 4.14528 8.04674 8.04672
            CHANNELS 3 Zrotation Xrotation Yrotation
            End Site
            {
              OFFSET 1 0 0
            }
          }
          JOINT rightEye
          {
            OFFSET -3.6576 8.04674 8.04672
            CHANNELS 3 Zrotation Xrotation Yrotation
            End Site
            {
              OFFSET 1 0 0
            }
          }
        }
      }
      JOINT rCollar
      {
        OFFSET -2.68224 19.2634 -4.8768
        CHANNELS 3 Zrotation Xrotation Yrotation
        JOINT rShldr
        {
          OFFSET -8.77824 -1.95073 1.46304
          CHANNELS 3 Zrotation Xrotation Yrotation
          JOINT rForeArm
          {
            OFFSET -28.1742 -1.7115 0.48768
            CHANNELS 3 Zrotation Xrotation Yrotation
            JOINT rHand
            {
              OFFSET -22.5879 0.773209 7.07136
              CHANNELS 3 Zrotation Xrotation Yrotation
              JOINT rThumb1
              {
                OFFSET -1.2192 -0.487915 3.41376
                CHANNELS 3 Zrotation Xrotation Yrotation
                JOINT rThumb2
                {
                  OFFSET -3.37035 -0.52449 3.41376
                  CHANNELS 3 Zrotation Xrotation Yrotation
                  End Site
                  {
                    OFFSET -1.78271 -1.18214 1.43049
                  }
                }
              }
              JOINT rIndex1
              {
                OFFSET -7.75947 0.938293 5.60832
                CHANNELS 3 Zrotation Xrotation Yrotation
                JOINT rIndex2
                {
                  OFFSET -2.54057 -0.884171 1.56538
                  CHANNELS 3 Zrotation Xrotation Yrotation
                  End Site
                  {
                    OFFSET -1.62519 -0.234802 1.16502
                  }
                }
              }
              JOINT rMid1
              {
                OFFSET -8.24714 1.18213 3.41376
                CHANNELS 3 Zrotation Xrotation Yrotation
                JOINT rMid2
                {
                  OFFSET -3.10165 -0.590103 1.0647
                  CHANNELS 3 Zrotation Xrotation Yrotation
                  End Site
                  {
                    OFFSET -2.48547 -0.328903 0.83742
                  }
                }
              }
              JOINT rRing1
              {
                OFFSET -8.82822 0.546677 1.51678
                CHANNELS 3 Zrotation Xrotation Yrotation
                JOINT rRing2
                {
                  OFFSET -2.60934 -0.819778 -0.0198488
                  CHANNELS 3 Zrotation Xrotation Yrotation
                  End Site
                  {
                    OFFSET -2.33842 -0.294052 0.168128
                  }
                }
              }
              JOINT rPinky1
              {
                OFFSET -8.27202 -0.0477905 -0.4584
                CHANNELS 3 Zrotation Xrotation Yrotation
                JOINT rPinky2
                {
                  OFFSET -1.82734 -0.647385 -0.700984
                  CHANNELS 3 Zrotation Xrotation Yrotation
                  End Site
                  {
                    OFFSET -1.69225 -0.51767 -0.607171
                  }
                }
              }
            }
          }
        }
      }
      JOINT lCollar
      {
        OFFSET 2.68224 19.2634 -4.8768
        CHANNELS 3 Zrotation Xrotation Yrotation
        JOINT lShldr
        {
          OFFSET 8.77824 -1.95073 1.46304
          CHANNELS 3 Zrotation Xrotation Yrotation
          JOINT lForeArm
          {
            OFFSET 28.1742 -1.7115 0.48768
            CHANNELS 3 Zrotation Xrotation Yrotation
            JOINT lHand
            {
              OFFSET 22.5879 0.773209 7.07136
              CHANNELS 3 Zrotation Xrotation Yrotation
              JOINT lThumb1
              {
                OFFSET 1.2192 -0.487915 3.41376
                CHANNELS 3 Zrotation Xrotation Yrotation
                JOINT lThumb2
                {
                  OFFSET 3.37035 -0.52449 3.41376
                  CHANNELS 3 Zrotation Xrotation Yrotation
                  End Site
                  {
                    OFFSET 1.78271 -1.18214 1.43049
                  }
                }
              }
              JOINT lIndex1
              {
                OFFSET 7.75947 0.938293 5.60832
                CHANNELS 3 Zrotation Xrotation Yrotation
                JOINT lIndex2
                {
                  OFFSET 2.54057 -0.884171 1.56538
                  CHANNELS 3 Zrotation Xrotation Yrotation
                  End Site
                  {
                    OFFSET 1.62519 -0.234802 1.16502
                  }
                }
              }
              JOINT lMid1
              {
                OFFSET 8.24714 1.18213 3.41376
                CHANNELS 3 Zrotation Xrotation Yrotation
                JOINT lMid2
                {
                  OFFSET 3.10165 -0.590103 1.0647
                  CHANNELS 3 Zrotation Xrotation Yrotation
                  End Site
                  {
                    OFFSET 2.48547 -0.328903 0.83742
                  }
                }
              }
              JOINT lRing1
              {
                OFFSET 8.82822 0.546677 1.51678
                CHANNELS 3 Zrotation Xrotation Yrotation
                JOINT lRing2
                {
                  OFFSET 2.60934 -0.819778 -0.0198488
                  CHANNELS 3 Zrotation Xrotation Yrotation
                  End Site
                  {
                    OFFSET 2.33842 -0.294052 0.168128
                  }
                }
              }
              JOINT lPinky1
              {
                OFFSET 8.27202 -0.0477905 -0.4584
                CHANNELS 3 Zrotation Xrotation Yrotation
                JOINT lPinky2
                {
                  OFFSET 1.82734 -0.647385 -0.700984
                  CHANNELS 3 Zrotation Xrotation Yrotation
                  End Site
                  {
                    OFFSET 1.69225 -0.51767 -0.607171
                  }
                }
              }
            }
          }
        }
      }
    }
  }
  JOINT rButtock
  {
    OFFSET -8.77824 4.35084 1.2192
    CHANNELS 3 Zrotation Xrotation Yrotation
    JOINT rThigh
    {
      OFFSET 0 -1.70687 -2.19456
      CHANNELS 3 Zrotation Xrotation Yrotation
      JOINT rShin
      {
        OFFSET 0 -36.8199 0.73152
        CHANNELS 3 Zrotation Xrotation Yrotation
        JOINT rFoot
        {
          OFFSET 0.73152 -45.1104 -5.12064
          CHANNELS 3 Zrotation Xrotation Yrotation
          End Site
          {
            OFFSET -1.1221 -3.69964 12.103
          }
        }
      }
    }
  }
  JOINT lButtock
  {
    OFFSET 8.77824 4.35084 1.2192
    CHANNELS 3 Zrotation Xrotation Yrotation
    JOINT lThigh
    {
      OFFSET 0 -1.70687 -2.19456
      CHANNELS 3 Zrotation Xrotation Yrotation
      JOINT lShin
      {
        OFFSET 0 -36.8199 0.73152
        CHANNELS 3 Zrotation Xrotation Yrotation
        JOINT lFoot
        {
          OFFSET -0.73152 -45.1104 -5.12064
          CHANNELS 3 Zrotation Xrotation Yrotation
          End Site
          {
            OFFSET 1.1221 -3.69964 12.103
          }
        }
      }
    }
  }
}
MOTION
Frames:	5
Frame Time:	0.00833333
29.5973 28.8955 27.4334 175.367 -65.3667 -191.805 10.8418 61.7162 -6.34165 6.82907 -2.70049 -2.26794 -4.48733 4.4479 20.1746 -9.87987 -13.2809 39.6094 -0.0 0.0 0.0 -0.0 0.0 0.0 -2.28721e-14 1.14333e-13 -4.15188e-14 109.99 44.1471 -23.0186 -14.6577 -7.5095 26.8661 -0.365496 -17.0989 -2.47456 1.17594e-09 4.31731e-10 8.2446e-10 2.0288e-09 7.57053e-10 1.43601e-09 1.17595e-09 4.31727e-10 8.24446e-10 7.73091 5.47488 0.417314 1.17594e-09 4.31727e-10 8.24455e-10 2.90554 0.965183 0.102902 1.17595e-09 4.31726e-10 8.24457e-10 10.2786 0.731801 0.0259123 1.17594e-09 4.31726e-10 8.24461e-10 2.22167 -0.733487 -0.20892 -2.29516e-14 1.14332e-13 -4.16598e-14 -72.5148 -7.59825 -16.3467 24.1343 -19.3532 -50.0125 1.6759 -34.0981 5.46 4.29599e-10 3.54646e-10 5.60556e-10 7.23211e-10 6.29877e-10 9.82591e-10 4.29597e-10 3.54641e-10 5.60558e-10 -7.73091 5.47488 -0.417314 4.29604e-10 3.54638e-10 5.60549e-10 -2.90554 0.965183 -0.102902 4.29596e-10 3.54643e-10 5.6056e-10 -10.2786 0.731801 -0.0259123 4.29606e-10 3.54648e-10 5.60557e-10 -2.22167 -0.733487 0.20892 -2.03217e-16 0.0 -3.88251e-19 -118.065 -49.1181 -107.139 -177.888 32.6355 179.159 4.83796 12.2139 32.3409 2.03217e-16 0.0 3.88251e-19 97.1968 -36.7343 78.5014 177.082 37.7715 -174.387 -24.5917 -12.4224 -43.0727
29.6358 28.8834 26.5974 179.484 -65.5519 -195.752 13.2257 62.0945 -7.44772 6.36352 -3.35076 -2.14533 -4.50678 4.29514 20.2116 -10.0227 -13.7063 39.7038 -0.0 0.0 0.0 -0.0 0.0 0.0 -6.31951e-14 -1.89329e-14 6.39838e-14 108.643 43.0374 -21.8347 -13.8424 -6.84723 25.2008 -0.26427 -14.5253 -2.08283 2.58502e-09 2.73617e-09 2.81928e-09 4.45215e-09 4.75126e-09 4.89575e-09 2.58503e-09 2.73617e-09 2.81927e-09 7.73091 5.47488 0.417314 2.58502e-09 2.73617e-09 2.81928e-09 2.90554 0.965183 0.102902 2.58502e-09 2.73617e-09 2.81928e-09 10.2786 0.731801 0.0259123 2.58502e-09 2.73617e-09 2.81929e-09 2.22167 -0.733487 -0.20892 -6.32423e-14 -1.89356e-14 6.3844e-14 -72.3963 -7.27001 -16.8563 24.4432 -19.9531 -51.0125 1.62821 -33.6788 5.37421 6.26879e-10 1.70647e-09 2.30858e-09 1.01764e-09 2.98442e-09 4.01101e-09 6.26877e-10 1.70647e-09 2.30858e-09 -7.73091 5.47488 -0.417314 6.26892e-10 1.70646e-09 2.30855e-09 -2.90554 0.965183 -0.102902 6.26874e-10 1.70647e-09 2.30858e-09 -10.2786 0.731801 -0.0259123 6.26888e-10 1.70648e-09 2.30858e-09 -2.22167 -0.733487 0.20892 -2.03217e-16 0.0 -3.88251e-19 -115.751 -50.2444 -105.166 -177.798 34.2045 178.561 7.31556 6.81893 28.8244 2.03217e-16 0.0 3.88251e-19 99.3155 -37.6721 78.2487 177.122 37.6925 -174.636 -24.8637 -12.9536 -42.1651
29.6942 28.9446 25.815 183.406 -65.7801 -199.346 14.6243 62.4647 -8.06283 5.96226 -3.9963 -2.03851 -4.49771 4.11875 20.2412 -10.1219 -14.2068 39.7902 -0.0 0.0 0.0 -0.0 0.0 0.0 -1.18025e-13 -1.39949e-13 1.71325e-13 107.121 41.8882 -20.5056 -13.01 -6.19697 23.5535 -0.173134 -11.6008 -1.651 4.10223e-09 4.96265e-09 4.84439e-09 7.0642e-09 8.60947e-09 8.40706e-09 4.10223e-09 4.96264e-09 4.84438e-09 7.73091 5.47488 0.417314 4.10223e-09 4.96265e-09 4.84439e-09 2.90554 0.965183 0.102902 4.10223e-09 4.96265e-09 4.84439e-09 10.2786 0.731801 0.0259123 4.10222e-09 4.96265e-09 4.8444e-09 2.22167 -0.733487 -0.20892 -1.18047e-13 -1.39952e-13 1.71182e-13 -72.1699 -6.919 -17.3449 24.7421 -20.5558 -52.0333 1.58072 -33.2558 5.2883 8.73473e-10 2.98702e-09 3.97432e-09 1.39905e-09 5.21653e-09 6.8988e-09 8.73471e-10 2.98702e-09 3.97432e-09 -7.73091 5.47488 -0.417314 8.73494e-10 2.98701e-09 3.97428e-09 -2.90554 0.965183 -0.102902 8.73467e-10 2.98702e-09 3.97432e-09 -10.2786 0.731801 -0.0259123 8.73484e-10 2.98702e-09 3.97432e-09 -2.22167 -0.733487 0.20892 -2.03217e-16 0.0 -3.88251e-19 -113.912 -51.2555 -103.071 -177.657 35.7602 177.906 9.20959 1.17464 26.1795 2.03217e-16 0.0 3.88251e-19 100.638 -39.0243 78.0635 177.174 37.6512 -175.01 -24.5712 -13.3567 -40.6902
29.6414 28.7741 25.3702 182.523 -66.2955 -198.343 15.433 62.891 -8.40048 5.73488 -4.54495 -1.94571 -4.46112 3.94521 20.2528 -10.2183 -14.6227 39.8345 -0.0 0.0 0.0 -0.0 0.0 0.0 -1.78109e-13 -1.7175e-13 2.3064e-13 105.345 40.955 -19.0199 -12.2405 -5.61872 22.0762 -0.0885378 -8.45737 -1.1974 5.20484e-09 6.20922e-09 6.26807e-09 8.96813e-09 1.07648e-08 1.08698e-08 5.20485e-09 6.20921e-09 6.26805e-09 7.73091 5.47488 0.417314 5.20484e-09 6.20922e-09 6.26806e-09 2.90554 0.965183 0.102902 5.20484e-09 6.20922e-09 6.26807e-09 10.2786 0.731801 0.0259123 5.20484e-09 6.20922e-09 6.26808e-09 2.22167 -0.733487 -0.20892 -1.78125e-13 -1.7175e-13 2.30491e-13 -71.8045 -6.55237 -17.8757 25.0144 -21.1268 -53.0001 1.52782 -32.7763 5.19181 1.0669e-09 3.69783e-09 4.88969e-09 1.70823e-09 6.4569e-09 8.48773e-09 1.0669e-09 3.69783e-09 4.88969e-09 -7.73091 5.47488 -0.417314 1.06693e-09 3.69781e-09 4.88965e-09 -2.90554 0.965183 -0.102902 1.0669e-09 3.69783e-09 4.8897e-09 -10.2786 0.731801 -0.0259123 1.06691e-09 3.69783e-09 4.88969e-09 -2.22167 -0.733487 0.20892 -2.03217e-16 0.0 -3.88251e-19 -112.473 -52.3025 -100.721 -177.539 37.0033 177.52 10.4865 -2.27915 25.6943 2.03217e-16 0.0 3.88251e-19 101.048 -40.4702 77.6938 177.221 37.6773 -175.37 -24.017 -13.5508 -39.2642
29.677 29.1019 24.9689 178.737 -66.7149 -194.656 15.2808 63.5048 -8.3523 5.83144 -4.97913 -1.88664 -4.35464 3.76307 20.2384 -10.3581 -14.9344 39.805 -0.0 0.0 0.0 -0.0 0.0 0.0 -2.66424e-13 -7.26222e-14 2.26312e-13 103.183 40.2701 -17.2324 -11.5574 -5.13653 20.7729 -0.0104427 -4.89888 -0.690559 5.94424e-09 6.02267e-09 7.02354e-09 1.02589e-08 1.04267e-08 1.21616e-08 5.94425e-09 6.02266e-09 7.02353e-09 7.73091 5.47488 0.417314 5.94424e-09 6.02267e-09 7.02354e-09 2.90554 0.965183 0.102902 5.94424e-09 6.02267e-09 7.02354e-09 10.2786 0.731801 0.0259123 5.94424e-09 6.02267e-09 7.02355e-09 2.22167 -0.733487 -0.20892 -2.66462e-13 -7.26148e-14 2.26151e-13 -71.2601 -6.16223 -18.4779 25.2687 -21.6841 -53.9145 1.47614 -32.2847 5.0946 1.20593e-09 3.58516e-09 4.67859e-09 1.95217e-09 6.26472e-09 8.12817e-09 1.20593e-09 3.58516e-09 4.67859e-09 -7.73091 5.47488 -0.417314 1.20595e-09 3.58515e-09 4.67856e-09 -2.90554 0.965183 -0.102902 1.20593e-09 3.58516e-09 4.6786e-09 -10.2786 0.731801 -0.0259123 1.20594e-09 3.58517e-09 4.67859e-09 -2.22167 -0.733487 0.20892 -2.03217e-16 0.0 -3.88251e-19 -111.756 -53.4503 -97.6719 -177.513 37.8915 177.611 11.4957 -1.8607 28.5404 2.03217e-16 0.0 3.88251e-19 99.7247 -42.2861 76.8384 177.265 37.8342 -175.759 -22.9787 -13.3472 -37.8085
